<svg width="60" height="40" viewBox="0 0 60 40" fill="none" xmlns="http://www.w3.org/2000/svg">
<path d="M39.4049 24.086H44.81V33.6129C44.81 33.6129 33.8254 34.3096 33.8254 21.8838C33.8254 19.3548 35.569 10.3225 42.1946 11.1828C47.0766 11.1828 50.1 10.2064 50.1558 11.1268C50.2116 12.0473 50.1558 4.66232 50.1558 4.66232H42.0028C42.0028 4.66232 28.246 4.73114 28.5947 22.3655C28.5947 24.086 28.246 40.4301 44.6356 39.5698C46.7279 39.5698 50.1837 39.6043 50.1837 39.6043V17.858H39.3875L39.4049 24.086Z" fill="#FF4C29"/>
<path d="M0 25.8065H5.28653V33.2516C5.28653 33.2516 16.3896 35.699 15.6922 22.3656C14.9948 9.03229 5.57945 11.6129 5.57945 11.6129V18.9248L0 19.1398V5.39789H7.86354C7.86354 5.39789 21.2716 4.73122 20.9229 22.3656C20.5742 40 7.67174 39.5699 7.67174 39.5699H0V25.8065Z" fill="#FF4C29"/>
<path d="M24.7588 40C26.8773 40 28.5947 37.8818 28.5947 35.2688C28.5947 32.6559 26.8773 30.5377 24.7588 30.5377C22.6403 30.5377 20.9229 32.6559 20.9229 35.2688C20.9229 37.8818 22.6403 40 24.7588 40Z" fill="#FF4C29"/>
<path d="M56.1641 39.5828C58.2826 39.5828 60 37.4645 60 34.8516C60 32.2386 58.2826 30.1204 56.1641 30.1204C54.0456 30.1204 52.3282 32.2386 52.3282 34.8516C52.3282 37.4645 54.0456 39.5828 56.1641 39.5828Z" fill="#FF4C29"/>
</svg>
