<svg width="122" height="120" viewBox="0 0 122 120" fill="none" xmlns="http://www.w3.org/2000/svg">
<path d="M91.0187 83.16H106.519V105.31C106.519 105.31 75.0187 106.93 75.0187 78.04C75.0187 72.16 80.0187 51.16 99.0187 53.16C113.019 53.16 121.689 50.89 121.849 53.03C122.009 55.17 121.849 38 121.849 38H98.4687C98.4687 38 59.0187 38.16 60.0187 79.16C60.0187 83.16 59.0187 121.16 106.019 119.16C112.019 119.16 121.929 119.24 121.929 119.24V68.68H90.9687L91.0187 83.16Z" fill="#FF4C29"/>
<path d="M0 47.4577H15.16V64.7677C15.16 64.7677 47 70.4577 45 39.4577C43 8.45766 16 14.4577 16 14.4577V31.4577L0 31.9577V0.00765909H22.55C22.55 0.00765909 61 -1.54234 60 39.4577C59 80.4577 22 79.4577 22 79.4577H0V47.4577Z" fill="#FF4C29"/>
</svg>
