<svg width="20" height="18" viewBox="0 0 20 18" fill="none" xmlns="http://www.w3.org/2000/svg">
<path d="M19.75 13.375C19.75 14.5353 19.2891 15.6481 18.4686 16.4686C17.6481 17.2891 16.5353 17.75 15.375 17.75C14.2147 17.75 13.1019 17.2891 12.2814 16.4686C11.4609 15.6481 11 14.5353 11 13.375C11 12.2147 11.4609 11.1019 12.2814 10.2814C13.1019 9.46094 14.2147 9 15.375 9C16.5353 9 17.6481 9.46094 18.4686 10.2814C19.2891 11.1019 19.75 12.2147 19.75 13.375ZM17.2587 11.2763C17.1883 11.234 17.1103 11.2061 17.0291 11.1941C16.9479 11.1821 16.8651 11.1861 16.7855 11.2061C16.7058 11.2261 16.6309 11.2615 16.565 11.3105C16.4991 11.3594 16.4434 11.4208 16.4013 11.4913L14.9388 13.9287L14.255 13.245C14.1376 13.1276 13.9785 13.0617 13.8125 13.0617C13.6465 13.0617 13.4874 13.1276 13.37 13.245C13.2526 13.3624 13.1867 13.5215 13.1867 13.6875C13.1867 13.8535 13.2526 14.0126 13.37 14.13L14.3375 15.0962C14.4382 15.1971 14.5606 15.2738 14.6954 15.3202C14.8301 15.3667 14.9737 15.3819 15.1152 15.3645C15.2567 15.3472 15.3924 15.2978 15.5119 15.2201C15.6314 15.1424 15.7317 15.0385 15.805 14.9162L17.4737 12.1337C17.516 12.0633 17.5439 11.9853 17.5559 11.9041C17.5679 11.8229 17.5639 11.7401 17.5439 11.6605C17.5239 11.5808 17.4885 11.5059 17.4395 11.44C17.3906 11.3741 17.3292 11.3184 17.2587 11.2763Z" fill="#FF4C29"/>
<path d="M2.5 0C1.83696 0 1.20107 0.263392 0.732233 0.732233C0.263392 1.20107 0 1.83696 0 2.5L0 12.5125C0.00330441 13.1734 0.268155 13.8061 0.736638 14.2722C1.20512 14.7383 1.83912 15 2.5 15H9.375C9.54076 15 9.69973 14.9342 9.81694 14.8169C9.93415 14.6997 10 14.5408 10 14.375C10 14.2092 9.93415 14.0503 9.81694 13.9331C9.69973 13.8158 9.54076 13.75 9.375 13.75H2.5C2.22485 13.75 1.95737 13.6593 1.73905 13.4918C1.52073 13.3243 1.36376 13.0895 1.2925 12.8237L8.3425 8.485L10 9.47875L18.75 4.22875V8.125C18.75 8.29076 18.8158 8.44973 18.9331 8.56694C19.0503 8.68415 19.2092 8.75 19.375 8.75C19.5408 8.75 19.6997 8.68415 19.8169 8.56694C19.9342 8.44973 20 8.29076 20 8.125V2.5C20 1.83696 19.7366 1.20107 19.2678 0.732233C18.7989 0.263392 18.163 0 17.5 0H2.5ZM7.135 7.76L1.25 11.3812V4.22875L7.135 7.76ZM1.25 2.77125V2.5C1.25 2.16848 1.3817 1.85054 1.61612 1.61612C1.85054 1.3817 2.16848 1.25 2.5 1.25H17.5C17.8315 1.25 18.1495 1.3817 18.3839 1.61612C18.6183 1.85054 18.75 2.16848 18.75 2.5V2.77125L10 8.02125L1.25 2.77125Z" fill="#FF4C29"/>
</svg>
